<svg width="60" height="60" viewBox="0 0 60 60" fill="none" xmlns="http://www.w3.org/2000/svg">
<rect width="60" height="60" fill="black"/>
<path d="M9.836 41.28C9.25733 41.28 8.786 41.1867 8.422 41C8.058 40.8227 7.78733 40.5893 7.61 40.3C7.442 40.0013 7.358 39.6933 7.358 39.376C7.358 39.2267 7.38133 39.0167 7.428 38.746C7.47467 38.4753 7.53533 38.2 7.61 37.92L11.026 25.32H13.266L9.276 39.782C9.248 39.8753 9.22 39.9873 9.192 40.118C9.164 40.2393 9.15 40.3653 9.15 40.496C9.15 40.832 9.43933 41 10.018 41C10.494 41 10.942 40.902 11.362 40.706C11.7913 40.5007 12.1973 40.202 12.58 39.81C12.9627 39.418 13.322 38.9327 13.658 38.354C14.0033 37.7753 14.3253 37.1173 14.624 36.38L14.82 36.436C14.4187 37.4627 13.9707 38.34 13.476 39.068C12.9907 39.7867 12.4447 40.3373 11.838 40.72C11.2407 41.0933 10.5733 41.28 9.836 41.28ZM7.456 28.33V28.12H15.016V28.33H7.456ZM17.9634 41.28C17.2354 41.28 16.6848 41.1167 16.3114 40.79C15.9381 40.4633 15.7514 40.0387 15.7514 39.516C15.7514 39.3293 15.7608 39.166 15.7794 39.026C15.8074 38.8767 15.8401 38.7413 15.8774 38.62L20.8334 20.21H18.1174V20H23.1154L17.7394 39.964C17.7208 40.0387 17.7068 40.1227 17.6974 40.216C17.6881 40.3 17.6834 40.37 17.6834 40.426C17.6834 40.7993 17.8748 40.986 18.2574 40.986C18.7521 40.986 19.2094 40.8367 19.6294 40.538C20.0494 40.2393 20.4508 39.7727 20.8334 39.138C21.2161 38.5033 21.5988 37.6727 21.9814 36.646L22.1774 36.716C21.7761 37.7893 21.3701 38.662 20.9594 39.334C20.5581 40.006 20.1148 40.5007 19.6294 40.818C19.1534 41.126 18.5981 41.28 17.9634 41.28ZM26.2392 41.28C25.5112 41.28 24.9699 41.1213 24.6152 40.804C24.2699 40.4773 24.0972 40.048 24.0972 39.516C24.0972 39.376 24.1065 39.2313 24.1252 39.082C24.1532 38.9233 24.1859 38.7693 24.2232 38.62L27.1632 28.33H25.0352V28.12H29.4172L26.0712 39.95C26.0525 40.0247 26.0385 40.104 26.0292 40.188C26.0199 40.2627 26.0152 40.3327 26.0152 40.398C26.0152 40.5567 26.0525 40.6967 26.1272 40.818C26.2112 40.93 26.3605 40.986 26.5752 40.986C27.0885 40.986 27.5505 40.8413 27.9612 40.552C28.3812 40.2533 28.7779 39.7867 29.1512 39.152C29.5339 38.508 29.9259 37.6727 30.3272 36.646L30.5232 36.716C30.1219 37.7893 29.7159 38.662 29.3052 39.334C28.9039 40.006 28.4605 40.5007 27.9752 40.818C27.4899 41.126 26.9112 41.28 26.2392 41.28ZM29.6552 23.234C29.3472 23.234 29.0672 23.1593 28.8152 23.01C28.5632 22.8513 28.3625 22.646 28.2132 22.394C28.0639 22.1327 27.9892 21.848 27.9892 21.54C27.9892 21.232 28.0639 20.952 28.2132 20.7C28.3625 20.4387 28.5632 20.2333 28.8152 20.084C29.0672 19.9347 29.3472 19.86 29.6552 19.86C29.9632 19.86 30.2432 19.9347 30.4952 20.084C30.7565 20.2333 30.9619 20.4387 31.1112 20.7C31.2699 20.952 31.3492 21.232 31.3492 21.54C31.3492 21.848 31.2699 22.1327 31.1112 22.394C30.9619 22.646 30.7565 22.8513 30.4952 23.01C30.2432 23.1593 29.9632 23.234 29.6552 23.234ZM48.7696 41.28C48.0322 41.28 47.5049 41.1167 47.1876 40.79C46.8702 40.454 46.7116 40.02 46.7116 39.488C46.7116 39.2827 46.7302 39.0913 46.7676 38.914C46.8142 38.7273 46.8562 38.564 46.8936 38.424L48.6576 32.376C49.0309 31.0693 49.2222 30.0473 49.2316 29.31C49.2502 28.5727 48.9982 28.204 48.4756 28.204C47.8316 28.204 47.2016 28.47 46.5856 29.002C45.9789 29.534 45.4049 30.2433 44.8636 31.13C44.3222 32.0167 43.8416 32.9967 43.4216 34.07C43.0016 35.134 42.6562 36.2027 42.3856 37.276H42.2176C42.4882 36.212 42.8336 35.1293 43.2536 34.028C43.6829 32.9173 44.1776 31.8953 44.7376 30.962C45.2976 30.0287 45.9136 29.2773 46.5856 28.708C47.2669 28.1387 47.9902 27.854 48.7556 27.854C49.5956 27.854 50.2069 28.05 50.5896 28.442C50.9816 28.8247 51.1962 29.3333 51.2336 29.968C51.2802 30.6027 51.1962 31.298 50.9816 32.054L48.6996 39.922C48.6716 40.006 48.6482 40.0947 48.6296 40.188C48.6202 40.2813 48.6156 40.3793 48.6156 40.482C48.6156 40.6313 48.6622 40.7527 48.7556 40.846C48.8582 40.93 48.9982 40.972 49.1756 40.972C49.6702 40.972 50.1276 40.8273 50.5476 40.538C50.9676 40.2487 51.3689 39.7867 51.7516 39.152C52.1436 38.5173 52.5356 37.682 52.9276 36.646L53.1236 36.716C52.7222 37.7893 52.3162 38.662 51.9056 39.334C51.5042 40.006 51.0516 40.5007 50.5476 40.818C50.0529 41.126 49.4602 41.28 48.7696 41.28ZM31.8296 41L34.8536 28.33H32.9496V28.12H37.1496L34.0696 41H31.8296ZM39.2496 41L41.3496 32.376C41.6669 31.0507 41.8442 30.024 41.8816 29.296C41.9282 28.568 41.6902 28.204 41.1676 28.204C40.5236 28.204 39.8889 28.47 39.2636 29.002C38.6382 29.534 38.0456 30.2433 37.4856 31.13C36.9349 32.0167 36.4402 32.9967 36.0016 34.07C35.5722 35.134 35.2222 36.2027 34.9516 37.276H34.7836C35.0542 36.212 35.4089 35.1293 35.8476 34.028C36.2862 32.9173 36.7949 31.8953 37.3736 30.962C37.9522 30.0287 38.5916 29.2773 39.2916 28.708C40.0009 28.1387 40.7522 27.854 41.5456 27.854C42.3109 27.854 42.8756 28.05 43.2396 28.442C43.6129 28.8247 43.8229 29.3333 43.8696 29.968C43.9256 30.6027 43.8602 31.298 43.6736 32.054L41.4756 41H39.2496Z" fill="white"/>
</svg>
