<svg width="60" height="60" viewBox="0 0 60 60" fill="none" xmlns="http://www.w3.org/2000/svg">
<path d="M28.6545 36.0364V30.9091C30.0121 30.5818 31.103 30.0303 31.9273 29.2545C32.7636 28.4788 33.3697 27.5697 33.7455 26.5273C34.1333 25.4848 34.3273 24.4 34.3273 23.2727C34.3273 22.4121 34.2667 21.5697 34.1455 20.7455C34.0364 19.9212 33.8061 19.1758 33.4545 18.5091C33.103 17.8424 32.5879 17.3091 31.9091 16.9091C31.2424 16.5091 30.3515 16.3091 29.2364 16.3091C28.2909 16.3091 27.4 16.4788 26.5636 16.8182C25.7273 17.1455 24.9879 17.5939 24.3455 18.1636C23.703 18.7333 23.1939 19.3636 22.8182 20.0545C22.4545 20.7455 22.2727 21.4424 22.2727 22.1455H22.0364C22.0364 21.7818 22.1333 21.4667 22.3273 21.2C22.5212 20.9333 22.7758 20.7333 23.0909 20.6C23.4061 20.4545 23.7333 20.3818 24.0727 20.3818C24.4364 20.3818 24.7758 20.4606 25.0909 20.6182C25.4061 20.7636 25.6606 20.9879 25.8545 21.2909C26.0485 21.5818 26.1455 21.9394 26.1455 22.3636C26.1455 22.8485 26.0364 23.2424 25.8182 23.5455C25.6 23.8364 25.3273 24.0485 25 24.1818C24.6848 24.3152 24.3758 24.3818 24.0727 24.3818C23.5152 24.3818 23.0303 24.1939 22.6182 23.8182C22.2061 23.4424 22 22.8848 22 22.1455C22 21.3939 22.1939 20.6545 22.5818 19.9273C22.9818 19.2 23.5273 18.5455 24.2182 17.9636C24.9091 17.3697 25.703 16.897 26.6 16.5455C27.5091 16.1818 28.4727 16 29.4909 16C31.2 16 32.6909 16.303 33.9636 16.9091C35.2485 17.5152 36.2424 18.3636 36.9455 19.4545C37.6485 20.5455 38 21.8182 38 23.2727C38 24.6667 37.6 25.9333 36.8 27.0727C36.0121 28.2121 34.9333 29.1394 33.5636 29.8545C32.1939 30.5576 30.6545 30.9636 28.9455 31.0727V36.0364H28.6545ZM28.8727 44C28.4727 44 28.1091 43.903 27.7818 43.7091C27.4545 43.5152 27.1879 43.2545 26.9818 42.9273C26.7879 42.5879 26.6909 42.2182 26.6909 41.8182C26.6909 41.4182 26.7879 41.0545 26.9818 40.7273C27.1879 40.3879 27.4545 40.1212 27.7818 39.9273C28.1091 39.7212 28.4727 39.6182 28.8727 39.6182C29.2727 39.6182 29.6364 39.7212 29.9636 39.9273C30.303 40.1212 30.5697 40.3879 30.7636 40.7273C30.9576 41.0545 31.0545 41.4182 31.0545 41.8182C31.0545 42.2182 30.9576 42.5879 30.7636 42.9273C30.5697 43.2545 30.303 43.5152 29.9636 43.7091C29.6364 43.903 29.2727 44 28.8727 44Z" fill="white"/>
</svg>
