<svg width="42" height="24" viewBox="0 0 42 24" fill="none" xmlns="http://www.w3.org/2000/svg">
<path fill-rule="evenodd" clip-rule="evenodd" d="M21 4.60086C18.8606 1.97147 15.6048 0.292683 11.9583 0.292683C5.51501 0.292683 0.291667 5.53423 0.291667 12C0.291667 18.4658 5.51501 23.7073 11.9583 23.7073C15.6048 23.7073 18.8606 22.0285 21 19.3991C23.1394 22.0285 26.3952 23.7073 30.0417 23.7073C36.485 23.7073 41.7083 18.4658 41.7083 12C41.7083 11.0967 41.6059 10.2146 41.4112 9.36585H31.3542L28.7292 14.6341H35.8986C34.8953 16.877 32.6503 18.439 30.0417 18.439C26.4978 18.439 23.625 15.5562 23.625 12C23.625 8.44383 26.4978 5.56098 30.0417 5.56098C31.0781 5.56098 32.0501 5.8056 32.9103 6.23807L35.2619 1.5278C33.6882 0.736682 31.9128 0.292683 30.0417 0.292683C26.3952 0.292683 23.1394 1.97147 21 4.60086ZM5.54167 12C5.54167 8.44383 8.41451 5.56098 11.9583 5.56098C15.5022 5.56098 18.375 8.44383 18.375 12C18.375 15.5562 15.5022 18.439 11.9583 18.439C8.41451 18.439 5.54167 15.5562 5.54167 12Z" fill="#282C37"/>
</svg>
