<?xml version="1.0" encoding="utf-8"?>
<!-- Generator: Adobe Illustrator 27.0.1, SVG Export Plug-In . SVG Version: 6.00 Build 0)  -->
<svg version="1.1" id="Layer_1" xmlns="http://www.w3.org/2000/svg" xmlns:xlink="http://www.w3.org/1999/xlink" x="0px" y="0px"
	 viewBox="0 0 42 42" style="enable-background:new 0 0 42 42;" xml:space="preserve">
<style type="text/css">
	.st0{fill-rule:evenodd;clip-rule:evenodd;fill:#282C37;}
	.st1{fill-rule:evenodd;clip-rule:evenodd;fill:#FFFFFF;}
</style>
<path class="st0" d="M35.1,42H6.9C3.1,42,0,38.9,0,35.1V6.9C0,3.1,3.1,0,6.9,0h28.2C38.9,0,42,3.1,42,6.9v28.2
	C42,38.9,38.9,42,35.1,42z"/>
<path class="st1" d="M21,15.6c-1.6-1.9-3.9-3.1-6.6-3.1c-4.7,0-8.5,3.8-8.5,8.5c0,4.7,3.8,8.5,8.5,8.5c2.7,0,5-1.2,6.6-3.1
	c1.6,1.9,3.9,3.1,6.6,3.1c4.7,0,8.5-3.8,8.5-8.5c0-0.7-0.1-1.3-0.2-1.9h-7.3l-1.9,3.8h5.2c-0.7,1.6-2.4,2.8-4.3,2.8
	c-2.6,0-4.7-2.1-4.7-4.7c0-2.6,2.1-4.7,4.7-4.7c0.8,0,1.5,0.2,2.1,0.5l1.7-3.4c-1.1-0.6-2.4-0.9-3.8-0.9
	C24.9,12.5,22.6,13.7,21,15.6z M9.7,21c0-2.6,2.1-4.7,4.7-4.7c2.6,0,4.7,2.1,4.7,4.7c0,2.6-2.1,4.7-4.7,4.7
	C11.8,25.7,9.7,23.6,9.7,21z"/>
</svg>
